<svg fill="#1C2033" width="52" height="52" viewBox="0 0 64 64" xmlns="http://www.w3.org/2000/svg"><path d="M1 30.6C10.9 30.6 20.7 30.6 30.6 30.6C30.6 20.7 30.6 10.9 30.6 1H1V30.6Z"/><path d="M62.9984 30.6C62.9984 20.7 62.9984 10.9 62.9984 1H33.3984C33.3984 10.9 33.3984 20.7 33.3984 30.6C43.2984 30.6 53.0984 30.6 62.9984 30.6Z"/><path d="M1 63.0004H30.6C30.6 53.1004 30.6 43.3004 30.6 33.4004C20.7 33.4004 10.9 33.4004 1 33.4004V63.0004Z"/><path d="M33.3984 63.0004H62.9984C62.9984 53.1004 62.9984 43.3004 62.9984 33.4004C53.0984 33.4004 43.2984 33.4004 33.3984 33.4004C33.3984 43.3004 33.3984 53.1004 33.3984 63.0004Z"/></svg>